Coordinates
version=1
nRows=11
nColumns=40
inDegrees=yes

Units are S.I. units (second, meters, Newtons, ...)
Angles are in degrees.

endheader
time	pelvis_tilt	pelvis_list	pelvis_rotation	pelvis_tx	pelvis_ty	pelvis_tz	hip_flexion_r	hip_adduction_r	hip_rotation_r	knee_angle_r	knee_angle_r_beta	ankle_angle_r	subtalar_angle_r	mtp_angle_r	hip_flexion_l	hip_adduction_l	hip_rotation_l	knee_angle_l	knee_angle_l_beta	ankle_angle_l	subtalar_angle_l	mtp_angle_l	lumbar_extension	lumbar_bending	lumbar_rotation	arm_flex_r	arm_add_r	arm_rot_r	elbow_flex_r	pro_sup_r	wrist_flex_r	wrist_dev_r	arm_flex_l	arm_add_l	arm_rot_l	elbow_flex_l	pro_sup_l	wrist_flex_l	wrist_dev_l
     25.59742857	     -4.05424019	     -4.41026635	      4.36040137	      0.90248042	      0.93331184	      0.51071355	      8.45365505	      4.08864926	    -15.89920869	     12.07147617	     12.07147617	      9.90633849	     -2.37879063	     -4.73782320	     33.95639688	     -8.09178587	      1.87079692	     41.31891252	     41.31891252	     10.72339292	    -17.92509508	     11.64746283	     -9.31746174	      5.07312246	      3.07386246	     28.64761844	    -18.96817411	    -10.01070415	     71.63485289	     45.04533875	      0.00000000	      0.00000000	      2.62681201	     -6.60766793	      7.00102623	     23.87413565	     44.88783080	      0.00000000	      0.00000000
     25.60985714	     -4.25570885	     -4.24338025	      4.62511092	      0.90074065	      0.93306867	      0.51022005	      8.17689072	      3.90310128	    -16.08756759	     11.94378082	     11.94378082	     10.18787601	     -2.32191789	     -4.83745223	     34.22072894	     -7.41072546	      2.21770563	     37.30984104	     37.30984104	     10.64859902	    -16.89717689	     11.60223271	     -9.33407848	      4.87669349	      2.66842095	     30.39480536	    -18.88482301	    -10.08104408	     73.80521005	     44.99203131	      0.00000000	      0.00000000	      1.45359194	     -6.71778772	      7.24520837	     23.67689914	     44.82983310	      0.00000000	      0.00000000
     25.62228571	     -4.49493518	     -4.05340798	      4.77608924	      0.89914704	      0.93275922	      0.50983068	      7.90977253	      3.71120625	    -16.11562741	     11.77347430	     11.77347430	     10.44619663	     -2.28763524	     -4.90671492	     34.36779366	     -6.86065891	      2.25554377	     33.31995147	     33.31995147	     10.77621098	    -15.24835904	     11.61027733	     -9.29679156	      4.61707829	      2.71313624	     31.96143905	    -19.10983125	    -10.26499821	     75.31551247	     44.96018660	      0.00000000	      0.00000000	      0.46893690	     -6.79855880	      7.36581679	     23.50037332	     44.79338868	      0.00000000	      0.00000000
     25.63471429	     -4.65803116	     -4.00421148	      4.97093418	      0.89772613	      0.93235551	      0.50926604	      7.52598590	      3.64159967	    -16.44532009	     11.56089629	     11.56089629	     10.77138094	     -1.80978407	     -4.93652341	     34.38337265	     -6.46174895	      2.28893087	     29.44429998	     29.44429998	     10.13508859	    -13.58931298	      9.96126136	     -9.40206666	      4.58140310	      2.91912017	     32.95175461	    -19.48538033	    -10.74242264	     78.57908105	     44.90591297	      0.00000000	      0.00000000	     -0.67163667	     -6.97390301	      8.12192441	     24.21227913	     44.65687895	      0.00000000	      0.00000000
     25.64714286	     -4.84962403	     -3.96273538	      5.13365730	      0.89642107	      0.93190641	      0.50862014	      7.16419106	      3.60903831	    -16.52476244	     11.32413000	     11.32413000	     11.00432215	     -1.75910743	     -4.98583516	     34.44381814	     -6.08851832	      2.21474928	     25.99410285	     25.99410285	     10.15416774	    -11.72982535	     10.29995341	     -9.34700257	      4.53236767	      2.87148996	     34.54047931	    -19.55730078	    -10.93570689	     79.74047832	     44.88590150	      0.00000000	      0.00000000	     -1.54938793	     -6.98291986	      8.28854898	     23.89934494	     44.61740160	      0.00000000	      0.00000000
     25.65957143	     -4.95952451	     -3.97842812	      5.29673515	      0.89536629	      0.93148423	      0.50788214	      6.64344966	      3.64351059	    -16.71011256	     10.98269321	     10.98269321	     11.23456267	     -1.45397573	     -5.02980674	     34.43682983	     -5.81041325	      1.96224431	     22.98697854	     22.98697854	     10.09805989	     -9.89795634	     10.63393168	     -9.37660381	      4.56646164	      2.75660568	     36.03059818	    -19.48235429	    -11.10252418	     81.18037958	     44.85639613	      0.00000000	      0.00000000	     -2.45721373	     -6.98459834	      8.47618852	     23.70928939	     44.57256628	      0.00000000	      0.00000000
     25.67200000	     -5.03279792	     -4.10052317	      5.45169229	      0.89457460	      0.93097791	      0.50704159	      6.00060817	      3.78137150	    -17.18143363	     10.51539298	     10.51539298	     11.51419780	     -0.61372528	     -5.01938174	     34.48125567	     -5.67911959	      1.48072922	     20.59478122	     20.59478122	     10.05096194	     -8.17359390	     10.85636562	     -9.41784747	      4.75023165	      2.71471770	     37.23703989	    -19.42453105	    -11.40058502	     83.17008557	     44.82489519	      0.00000000	      0.00000000	     -3.45383349	     -7.04987343	      8.98189045	     24.01713125	     44.47677799	      0.00000000	      0.00000000
     25.68442857	     -5.19639343	     -4.22981507	      5.56341889	      0.89384896	      0.93026050	      0.50609415	      5.56714324	      3.91932490	    -17.30888685	     10.25310951	     10.25310951	     11.76471983	     -0.42242976	     -5.05031683	     34.61148395	     -5.51193738	      1.04257937	     18.68246530	     18.68246530	      9.83336634	     -7.17879366	     11.23828465	     -9.29132011	      4.92205345	      2.86937495	     38.50531013	    -19.59718158	    -11.57977610	     83.97645190	     44.81396487	      0.00000000	      0.00000000	     -4.13464089	     -6.96602994	      9.11671209	     23.90374572	     44.44433885	      0.00000000	      0.00000000
     25.69685714	     -5.20553030	     -4.30326763	      5.64445065	      0.89350700	      0.92981120	      0.50508533	      4.83040046	      4.03184591	    -17.51866107	      9.78787198	      9.78787198	     12.00153256	      0.10595144	     -5.02044484	     34.46866280	     -5.36006721	      0.34045385	     17.16755872	     17.16755872	      9.59096360	     -6.35051473	     11.57556343	     -9.29717459	      5.04185588	      2.84314781	     39.61063722	    -19.43816118	    -11.71126449	     85.02251698	     44.79411741	      0.00000000	      0.00000000	     -4.86810491	     -6.93530790	      9.30115074	     23.83187217	     44.40244989	      0.00000000	      0.00000000
     25.70928571	     -5.33458139	     -4.48910977	      5.63815159	      0.89329587	      0.92889437	      0.50404345	      4.33106643	      4.22412503	    -17.58233384	      9.53368191	      9.53368191	     12.30124437	      0.43109514	     -5.06312723	     34.65750564	     -5.33224739	     -0.29670822	     16.54880466	     16.54880466	      9.34811776	     -6.22515705	     11.76745704	     -9.09269431	      5.26811181	      3.01392092	     40.55350535	    -19.60010188	    -11.89173157	     85.59478002	     44.78771457	      0.00000000	      0.00000000	     -5.63526783	     -6.88382630	      9.37865242	     23.66773232	     44.37631632	      0.00000000	      0.00000000
     25.72171429	     -5.21355425	     -4.59870790	      5.69120009	      0.89364834	      0.92842597	      0.50283493	      3.33971921	      4.31614525	    -18.50050994	      9.01686634	      9.01686634	     12.94383612	      2.37835561	     -4.39813017	     34.29821968	     -5.30525097	     -1.17624226	     16.01027991	     16.01027991	      8.86592839	     -5.85619420	     11.21440807	     -9.19534234	      5.45141303	      2.96539408	     41.19405572	    -19.12781325	    -12.39274553	     87.12146711	     44.79305157	      0.00000000	      0.00000000	     -6.62740570	     -7.11891858	     10.50332768	     24.77870625	     44.18738381	      0.00000000	      0.00000000
